<?xml version="1.0" encoding="utf-8"?>
<!-- Generator: Adobe Illustrator 16.0.0, SVG Export Plug-In . SVG Version: 6.00 Build 0)  -->
<!DOCTYPE svg PUBLIC "-//W3C//DTD SVG 1.1//EN" "http://www.w3.org/Graphics/SVG/1.1/DTD/svg11.dtd">
<svg version="1.1" id="Layer_1" xmlns="http://www.w3.org/2000/svg" xmlns:xlink="http://www.w3.org/1999/xlink" x="0px" y="0px"
	 width="270px" height="26.2px" viewBox="192.1 -79.8 270 26.2" enable-background="new 192.1 -79.8 270 26.2" xml:space="preserve"
	>
<g>
	<g>
		<g>
			<polygon fill="#FFFFFF" points="328.2,-71.7 328.2,-73 331.2,-73 331.2,-71.7 			"/>
		</g>
		<g>
			<polygon fill="#FFFFFF" points="337.5,-68.8 335.2,-74.9 336.8,-74.9 337.9,-71.2 339,-74.9 340.1,-74.9 341.1,-71.2 
				342.3,-74.9 343.9,-74.9 341.6,-68.8 340.7,-68.8 339.5,-72.8 338.4,-68.8 			"/>
		</g>
		<g>
			<polygon fill="#FFFFFF" points="346.4,-68.8 344.1,-74.9 345.7,-74.9 346.8,-71.2 347.9,-74.9 349,-74.9 350,-71.2 351.1,-74.9 
				352.7,-74.9 350.5,-68.8 349.6,-68.8 348.4,-72.8 347.3,-68.8 			"/>
		</g>
		<g>
			<polygon fill="#FFFFFF" points="355.3,-68.8 353,-74.9 354.6,-74.9 355.7,-71.2 356.7,-74.9 357.9,-74.9 358.9,-71.2 360,-74.9 
				361.6,-74.9 359.4,-68.8 358.4,-68.8 357.3,-72.8 356.1,-68.8 			"/>
		</g>
		<g>
			<polygon fill="#FFFFFF" points="362.6,-68.8 362.6,-70.3 364.1,-70.3 364.1,-68.8 			"/>
		</g>
		<g>
			<polygon fill="#FFFFFF" points="367.3,-68.8 365.1,-74.9 366.6,-74.9 367.8,-71.2 368.7,-74.9 369.9,-74.9 370.9,-71.2 
				372,-74.9 373.6,-74.9 371.4,-68.8 370.5,-68.8 369.4,-72.8 368.2,-68.8 			"/>
		</g>
		<g>
			<path fill="#FFFFFF" d="M374.5-68.8v-6.1h1.4v0.5c0.1-0.3,0.3-0.4,0.7-0.5c0.3-0.1,0.6-0.2,1-0.2c0.7,0,1.3,0.3,1.6,0.8l0.2,0.2
				c0.1-0.1,0.1-0.2,0.2-0.2c0.2-0.2,0.4-0.4,0.8-0.5s0.7-0.2,1-0.2c0.4,0,0.7,0.1,1,0.2s0.6,0.3,0.8,0.6c0.2,0.3,0.4,0.6,0.5,1
				c0.1,0.3,0.1,0.7,0.1,1.2v3.5h-1.5V-72v-0.2c0-0.2,0-0.4-0.1-0.6c-0.1-0.2-0.1-0.3-0.2-0.4c-0.2-0.3-0.5-0.4-0.9-0.4
				c-0.4,0-0.8,0.2-1,0.5c-0.1,0.2-0.2,0.3-0.2,0.5c-0.1,0.2-0.1,0.4-0.1,0.7v0.2v2.9h-1.5V-72c0-0.3,0-0.5-0.1-0.7
				c0-0.2-0.1-0.3-0.2-0.4c-0.1-0.2-0.3-0.3-0.4-0.4c-0.2-0.1-0.3-0.1-0.5-0.1c-0.5,0-0.9,0.2-1,0.7c-0.1,0.3-0.2,0.7-0.2,1.3v2.9
				L374.5-68.8L374.5-68.8z"/>
		</g>
		<g>
			<path fill="#FFFFFF" d="M389.3-70.8h1.6c-0.2,0.7-0.6,1.2-1.2,1.6c-0.6,0.4-1.2,0.6-1.9,0.6c-0.4,0-0.8-0.1-1.2-0.2
				c-0.4-0.2-0.8-0.4-1.1-0.7c-0.3-0.3-0.5-0.7-0.7-1c-0.2-0.4-0.3-0.9-0.3-1.3c0-0.9,0.3-1.6,0.9-2.2c0.7-0.6,1.4-0.9,2.3-0.9
				c0.7,0,1.3,0.2,1.9,0.6c0.6,0.4,1,0.9,1.2,1.6h-1.6c-0.2-0.3-0.4-0.5-0.6-0.6s-0.5-0.2-0.8-0.2c-0.5,0-0.9,0.2-1.3,0.5
				c-0.3,0.3-0.5,0.8-0.5,1.3c0,0.5,0.2,1,0.5,1.3c0.3,0.3,0.8,0.5,1.3,0.5c0.3,0,0.5-0.1,0.8-0.2C388.9-70.4,389.1-70.6,389.3-70.8
				L389.3-70.8z"/>
		</g>
		<g>
			<polygon fill="#FFFFFF" points="393.9,-68.8 391.4,-74.9 393,-74.9 394.4,-70.9 395.8,-74.9 397.5,-74.9 395,-68.8 			"/>
		</g>
		<g>
			<path fill="#FFFFFF" d="M398.2-68.8v-6.1h1.5v6.1L398.2-68.8L398.2-68.8z M398.2-75.7V-77h1.5v1.4L398.2-75.7L398.2-75.7z"/>
		</g>
		<g>
			<path fill="#FFFFFF" d="M402.1-72.5h3.3c-0.1-0.4-0.3-0.7-0.6-0.9c-0.3-0.2-0.7-0.3-1-0.3s-0.7,0.1-1,0.3
				C402.4-73.1,402.2-72.9,402.1-72.5L402.1-72.5z M406.9-71.2h-4.8c0.1,0.3,0.3,0.7,0.6,0.8c0.3,0.2,0.6,0.3,1,0.3
				c0.3,0,0.5-0.1,0.8-0.2c0.2-0.1,0.4-0.2,0.6-0.4h1.6c-0.2,0.5-0.5,1-1.1,1.4c-0.5,0.4-1.2,0.5-1.8,0.5c-0.9,0-1.6-0.3-2.3-0.9
				c-0.6-0.6-0.9-1.4-0.9-2.3c0-0.9,0.3-1.7,0.9-2.3c0.6-0.7,1.4-0.9,2.3-0.9c0.9,0,1.6,0.3,2.2,0.9c0.6,0.7,0.9,1.4,0.9,2.2
				c0,0.1,0,0.2,0,0.3C406.9-71.5,406.9-71.3,406.9-71.2L406.9-71.2z"/>
		</g>
		<g>
			<polygon fill="#FFFFFF" points="408.1,-68.8 408.1,-73.6 407.4,-73.6 407.4,-74.9 408.1,-74.9 408.1,-77 409.6,-77 409.6,-74.9 
				410.5,-74.9 410.5,-73.6 409.6,-73.6 409.6,-68.8 			"/>
		</g>
		<g>
			<path fill="#FFFFFF" d="M411.2-68.8v-6.1h1.4v0.5c0.2-0.2,0.4-0.4,0.7-0.5c0.3-0.1,0.6-0.2,0.9-0.2c0.3,0,0.7,0.1,0.9,0.2
				c0.3,0.1,0.6,0.3,0.8,0.5l0.2,0.2c0.2,0.3,0.3,0.7,0.4,1c0.1,0.3,0.1,0.7,0.1,1.2v3.2h-1.4v-2.9c0-0.3,0-0.6-0.1-0.9
				c0-0.2-0.1-0.4-0.2-0.6c-0.1-0.2-0.3-0.3-0.4-0.4c-0.2-0.1-0.4-0.2-0.5-0.2c-0.2,0-0.4,0.1-0.6,0.1c-0.2,0.1-0.3,0.2-0.4,0.4
				c-0.1,0.2-0.2,0.4-0.2,0.7c-0.1,0.2-0.1,0.5-0.1,0.8v0.2v2.8H411.2L411.2-68.8z"/>
		</g>
		<g>
			<path fill="#FFFFFF" d="M422.6-71.9c0-0.5-0.2-0.9-0.5-1.3c-0.3-0.3-0.8-0.5-1.3-0.5h-0.1c-0.5,0-0.9,0.2-1.3,0.5
				c-0.3,0.4-0.5,0.8-0.5,1.3c0,0.5,0.2,0.9,0.5,1.3c0.3,0.3,0.8,0.5,1.3,0.5c0.5,0,1-0.2,1.3-0.5C422.4-70.9,422.6-71.4,422.6-71.9
				L422.6-71.9z M424-74.9v6.1h-1.3v-0.8c-0.2,0.3-0.5,0.5-0.9,0.8c-0.4,0.2-0.8,0.3-1.2,0.3c-0.4,0-0.9-0.1-1.3-0.3
				c-0.4-0.2-0.7-0.4-1-0.8c-0.5-0.6-0.8-1.4-0.8-2.2c0-0.4,0.1-0.8,0.2-1.2c0.1-0.3,0.3-0.7,0.6-1c0.6-0.7,1.4-1,2.3-1
				c0.9,0,1.5,0.3,2.1,1v-0.8H424L424-74.9z"/>
		</g>
		<g>
			<path fill="#FFFFFF" d="M425.1-68.8v-6.1h1.3v0.5c0.1-0.3,0.3-0.4,0.7-0.5c0.3-0.1,0.6-0.2,1-0.2c0.7,0,1.3,0.3,1.6,0.8l0.2,0.2
				c0.1-0.1,0.1-0.2,0.2-0.2c0.2-0.2,0.4-0.4,0.8-0.5c0.3-0.1,0.7-0.2,1-0.2c0.4,0,0.7,0.1,1,0.2c0.3,0.1,0.6,0.3,0.8,0.6
				c0.2,0.3,0.4,0.6,0.5,1c0.1,0.3,0.1,0.7,0.1,1.2v3.5h-1.5V-72v-0.2c0-0.2,0-0.4-0.1-0.6c-0.1-0.2-0.1-0.3-0.2-0.4
				c-0.2-0.3-0.5-0.4-0.9-0.4c-0.4,0-0.8,0.2-1,0.5c-0.1,0.2-0.2,0.3-0.2,0.5c-0.1,0.2-0.1,0.4-0.1,0.7v0.2v2.9H429V-72
				c0-0.3,0-0.5-0.1-0.7c0-0.2-0.1-0.3-0.2-0.4c-0.1-0.2-0.2-0.3-0.4-0.4c-0.2-0.1-0.4-0.1-0.5-0.1c-0.5,0-0.9,0.2-1,0.7
				c-0.1,0.3-0.2,0.7-0.2,1.3v2.9L425.1-68.8L425.1-68.8z"/>
		</g>
		<g>
			<polygon fill="#FFFFFF" points="435.8,-68.8 435.8,-70.3 437.3,-70.3 437.3,-68.8 			"/>
		</g>
		<g>
			<path fill="#FFFFFF" d="M443.1-70.8h1.6c-0.2,0.7-0.6,1.2-1.2,1.6c-0.5,0.4-1.2,0.6-1.9,0.6c-0.4,0-0.8-0.1-1.2-0.2
				c-0.4-0.2-0.8-0.4-1-0.7c-0.3-0.3-0.5-0.7-0.7-1c-0.2-0.4-0.3-0.9-0.3-1.3c0-0.9,0.3-1.6,0.9-2.2c0.7-0.6,1.4-0.9,2.3-0.9
				c0.7,0,1.3,0.2,1.9,0.6c0.6,0.4,1,0.9,1.2,1.6h-1.6c-0.2-0.3-0.3-0.5-0.6-0.6c-0.2-0.1-0.5-0.2-0.8-0.2c-0.5,0-0.9,0.2-1.3,0.5
				c-0.3,0.3-0.5,0.8-0.5,1.3c0,0.5,0.2,1,0.5,1.3c0.3,0.3,0.8,0.5,1.3,0.5c0.3,0,0.5-0.1,0.8-0.2C442.8-70.4,443-70.6,443.1-70.8
				L443.1-70.8z"/>
		</g>
		<g>
			<path fill="#FFFFFF" d="M448.8-73.7c-0.2,0-0.4,0.1-0.7,0.2c-0.2,0.1-0.4,0.2-0.6,0.4c-0.3,0.3-0.5,0.8-0.5,1.3
				c0,0.5,0.2,0.9,0.5,1.3c0.3,0.3,0.8,0.5,1.3,0.5c0.5,0,0.9-0.2,1.3-0.5c0.3-0.3,0.5-0.8,0.5-1.3c0-0.5-0.2-0.9-0.5-1.3
				C449.8-73.5,449.3-73.7,448.8-73.7L448.8-73.7z M448.9-75.1c0.9,0,1.6,0.3,2.2,0.9c0.6,0.7,0.9,1.4,0.9,2.3
				c0,0.9-0.3,1.6-0.9,2.3c-0.7,0.6-1.4,0.9-2.3,0.9c-0.9,0-1.6-0.3-2.3-0.9c-0.7-0.7-0.9-1.4-0.9-2.3c0-0.9,0.3-1.7,0.9-2.3
				C447.2-74.8,447.9-75.1,448.9-75.1L448.9-75.1z"/>
		</g>
		<g>
			<path fill="#FFFFFF" d="M452.9-68.8v-6.1h1.4v0.5c0.1-0.3,0.3-0.4,0.7-0.5c0.3-0.1,0.6-0.2,1-0.2c0.7,0,1.3,0.3,1.6,0.8l0.2,0.2
				c0.1-0.1,0.1-0.2,0.2-0.2c0.2-0.2,0.4-0.4,0.8-0.5c0.3-0.1,0.7-0.2,1-0.2c0.4,0,0.7,0.1,1,0.2s0.6,0.3,0.8,0.6
				c0.3,0.3,0.4,0.6,0.5,1c0.1,0.3,0.1,0.7,0.1,1.2v3.5h-1.5V-72v-0.2c0-0.2,0-0.4-0.1-0.6c-0.1-0.2-0.1-0.3-0.2-0.4
				c-0.2-0.3-0.5-0.4-0.9-0.4c-0.4,0-0.8,0.2-1,0.5c-0.1,0.2-0.2,0.3-0.2,0.5c-0.1,0.2-0.1,0.4-0.1,0.7v0.2v2.9h-1.5V-72
				c0-0.3,0-0.5-0.1-0.7c0-0.2-0.1-0.3-0.2-0.4c-0.1-0.2-0.3-0.3-0.4-0.4c-0.2-0.1-0.4-0.1-0.5-0.1c-0.5,0-0.9,0.2-1,0.7
				c-0.1,0.3-0.2,0.7-0.2,1.3v2.9L452.9-68.8L452.9-68.8z"/>
		</g>
		<g>
			<polygon fill="#FFFFFF" points="192.1,-68.8 192.1,-77 194.2,-77 196.4,-70.7 198.6,-77 200.7,-77 200.7,-68.8 199.2,-68.8 
				199.2,-74.9 197,-68.8 195.8,-68.8 193.7,-74.9 193.7,-68.8 			"/>
		</g>
		<g>
			<path fill="#FFFFFF" d="M206.7-71.9c0-0.5-0.2-0.9-0.5-1.3c-0.3-0.3-0.8-0.5-1.3-0.5h-0.1c-0.5,0-0.9,0.2-1.3,0.5
				c-0.3,0.4-0.5,0.8-0.5,1.3c0,0.5,0.2,0.9,0.5,1.3c0.3,0.3,0.8,0.5,1.3,0.5c0.5,0,1-0.2,1.3-0.5C206.6-70.9,206.7-71.4,206.7-71.9
				L206.7-71.9z M208.1-74.9v6.1h-1.4v-0.8c-0.2,0.3-0.5,0.5-0.9,0.8c-0.4,0.2-0.8,0.3-1.2,0.3c-0.5,0-0.9-0.1-1.3-0.3
				c-0.4-0.2-0.7-0.4-1-0.8c-0.5-0.6-0.8-1.4-0.8-2.2c0-0.4,0.1-0.8,0.2-1.2c0.1-0.3,0.3-0.7,0.6-1c0.6-0.7,1.4-1,2.3-1
				c0.9,0,1.5,0.3,2,1v-0.8H208.1L208.1-74.9z"/>
		</g>
		<g>
			<path fill="#FFFFFF" d="M209.3-68.8v-6.1h1.4v0.5c0.2-0.2,0.4-0.4,0.7-0.5c0.3-0.1,0.6-0.2,0.9-0.2c0.3,0,0.7,0.1,0.9,0.2
				c0.3,0.1,0.6,0.3,0.8,0.5l0.2,0.2c0.2,0.3,0.3,0.7,0.4,1c0.1,0.3,0.1,0.7,0.1,1.2v3.2h-1.5v-2.9c0-0.3,0-0.6-0.1-0.9
				c0-0.2-0.1-0.4-0.2-0.6c-0.1-0.2-0.3-0.3-0.4-0.4c-0.2-0.1-0.4-0.2-0.5-0.2c-0.2,0-0.4,0.1-0.6,0.1c-0.2,0.1-0.3,0.2-0.4,0.4
				c-0.1,0.2-0.2,0.4-0.2,0.7c-0.1,0.2-0.1,0.5-0.1,0.8v0.2v2.8H209.3L209.3-68.8z"/>
		</g>
		<g>
			<path fill="#FFFFFF" d="M220.7-71.9c0-0.5-0.2-0.9-0.5-1.3c-0.3-0.3-0.8-0.5-1.3-0.5h-0.1c-0.5,0-0.9,0.2-1.3,0.5
				c-0.3,0.4-0.5,0.8-0.5,1.3c0,0.5,0.2,0.9,0.5,1.3c0.4,0.3,0.8,0.5,1.3,0.5c0.5,0,1-0.2,1.3-0.5C220.5-70.9,220.7-71.4,220.7-71.9
				L220.7-71.9z M222-74.9v6.1h-1.4v-0.8c-0.2,0.3-0.5,0.5-0.9,0.8c-0.4,0.2-0.8,0.3-1.2,0.3s-0.9-0.1-1.3-0.3
				c-0.4-0.2-0.7-0.4-1-0.8c-0.5-0.6-0.8-1.4-0.8-2.2c0-0.4,0.1-0.8,0.2-1.2c0.1-0.3,0.3-0.7,0.6-1c0.6-0.7,1.4-1,2.2-1
				c0.9,0,1.5,0.3,2,1v-0.8H222L222-74.9z"/>
		</g>
		<g>
			<path fill="#FFFFFF" d="M228-71.9c0-0.5-0.2-0.9-0.5-1.3c-0.4-0.3-0.8-0.5-1.3-0.5c-0.5,0-0.9,0.2-1.2,0.5
				c-0.2,0.2-0.3,0.4-0.4,0.5c-0.1,0.2-0.1,0.4-0.1,0.7c0,0.5,0.2,1,0.5,1.3c0.3,0.3,0.8,0.5,1.3,0.5c0.5,0,0.9-0.2,1.2-0.5
				C227.8-70.9,228-71.4,228-71.9L228-71.9z M228-74.9h1.4v5.2c0,0.5-0.1,0.9-0.2,1.3c-0.1,0.4-0.3,0.7-0.7,1
				c-0.3,0.3-0.7,0.6-1.2,0.8c-0.4,0.2-0.9,0.3-1.3,0.3c-0.7,0-1.3-0.2-1.9-0.5c-0.5-0.4-1-0.9-1.2-1.5h1.7c0.2,0.2,0.4,0.3,0.6,0.4
				c0.2,0.1,0.5,0.2,0.8,0.2c0.3,0,0.5-0.1,0.7-0.1c0.2-0.1,0.4-0.2,0.7-0.4c0.2-0.2,0.3-0.4,0.4-0.6c0.1-0.1,0.1-0.4,0.2-0.8
				c-0.3,0.3-0.5,0.6-0.9,0.8c-0.3,0.2-0.7,0.3-1.1,0.3c-0.4,0-0.8-0.1-1.2-0.3c-0.4-0.2-0.8-0.4-1-0.7c-0.3-0.3-0.5-0.7-0.7-1.1
				c-0.2-0.4-0.2-0.8-0.2-1.3c0-0.4,0.1-0.8,0.2-1.2c0.2-0.3,0.3-0.7,0.6-1c0.3-0.3,0.7-0.6,1-0.8c0.4-0.2,0.8-0.3,1.3-0.3
				c0.4,0,0.8,0.1,1.2,0.3c0.3,0.2,0.6,0.4,0.8,0.8L228-74.9L228-74.9z"/>
		</g>
		<g>
			<path fill="#FFFFFF" d="M231.9-72.5h3.3c-0.1-0.4-0.3-0.7-0.7-0.9c-0.3-0.2-0.7-0.3-1-0.3c-0.4,0-0.7,0.1-1,0.3
				C232.2-73.1,232-72.9,231.9-72.5L231.9-72.5z M236.6-71.2h-4.8c0.1,0.3,0.3,0.7,0.6,0.8c0.3,0.2,0.6,0.3,1,0.3
				c0.3,0,0.5-0.1,0.8-0.2c0.2-0.1,0.4-0.2,0.6-0.4h1.6c-0.2,0.5-0.5,1-1.1,1.4c-0.5,0.4-1.2,0.5-1.8,0.5c-0.9,0-1.6-0.3-2.2-0.9
				c-0.7-0.6-0.9-1.4-0.9-2.3c0-0.9,0.3-1.7,0.9-2.3c0.6-0.7,1.4-0.9,2.3-0.9c0.9,0,1.6,0.3,2.2,0.9c0.6,0.7,0.9,1.4,0.9,2.2
				c0,0.1,0,0.2,0,0.3C236.7-71.5,236.6-71.3,236.6-71.2L236.6-71.2z"/>
		</g>
		<g>
			<path fill="#FFFFFF" d="M242.5-71.9c0-0.5-0.2-0.9-0.5-1.3c-0.4-0.3-0.8-0.5-1.3-0.5s-0.9,0.2-1.3,0.5c-0.3,0.4-0.5,0.8-0.5,1.2
				c0,0.5,0.2,0.9,0.5,1.3c0.3,0.4,0.8,0.5,1.3,0.5c0.5,0,0.9-0.2,1.3-0.5C242.3-70.9,242.5-71.4,242.5-71.9L242.5-71.9z M243.9-77
				v8.2h-1.4v-0.8c-0.2,0.3-0.5,0.6-0.9,0.8c-0.4,0.2-0.8,0.3-1.2,0.3c-0.4,0-0.9-0.1-1.2-0.3c-0.3-0.2-0.7-0.4-1-0.8
				c-0.5-0.6-0.8-1.4-0.8-2.2c0-0.9,0.3-1.6,0.8-2.2c0.3-0.3,0.6-0.5,1-0.8c0.4-0.2,0.8-0.3,1.3-0.3c0.3,0,0.7,0.1,1,0.2
				c0.3,0.1,0.6,0.3,0.8,0.6V-77H243.9L243.9-77z"/>
		</g>
		<g>
			<path fill="#FFFFFF" d="M251.4-73.7c-0.5,0-0.9,0.2-1.3,0.5s-0.5,0.8-0.5,1.3c0,0.5,0.2,1,0.5,1.4s0.8,0.5,1.3,0.5
				c0.5,0,0.9-0.2,1.3-0.5c0.3-0.3,0.5-0.8,0.5-1.3c0-0.5-0.2-0.9-0.5-1.3C252.4-73.5,251.9-73.7,251.4-73.7L251.4-73.7z
				 M248.2-68.8V-77h1.5v2.7c0.2-0.3,0.5-0.5,0.8-0.6s0.7-0.2,1.1-0.2c0.9,0,1.6,0.3,2.2,0.9c0.6,0.7,0.9,1.4,0.9,2.3v0.1
				c0,0.4-0.1,0.8-0.2,1.2c-0.2,0.4-0.3,0.7-0.5,1c-0.3,0.3-0.6,0.6-1,0.8c-0.4,0.2-0.8,0.3-1.3,0.3s-0.8-0.1-1.2-0.3
				c-0.3-0.2-0.7-0.4-0.9-0.8v0.8H248.2L248.2-68.8z"/>
		</g>
		<g>
			<polygon fill="#FFFFFF" points="256.2,-66.8 257.3,-69.4 255,-74.9 256.7,-74.9 258.1,-71.1 259.6,-74.9 261.2,-74.9 
				257.7,-66.8 			"/>
		</g>
		<polygon fill="#FFFFFF" points="287,-79.5 282.8,-63.9 278.8,-63.9 276.7,-74.5 274.6,-63.9 270.5,-63.9 266.3,-79.5 270.5,-79.5 
			272.5,-69.4 274.5,-79.5 278.8,-79.5 280.9,-69.4 282.8,-79.5 		"/>
		<polygon fill="#FFFFFF" points="306.2,-63.9 302.4,-63.9 302.4,-74.1 297.3,-63.4 292.4,-74.1 292.4,-63.9 288.6,-63.9 
			288.6,-79.5 293.6,-79.5 297.4,-71.2 301.3,-79.5 306.2,-79.5 		"/>
		<path fill="#FFFFFF" d="M323.1-66.1c-1.6,1.6-3.6,2.5-6.1,2.5c-2.4,0-4.3-0.8-5.9-2.3s-2.4-3.5-2.4-5.8c0-2.4,0.8-4.3,2.4-5.9
			c1.6-1.5,3.5-2.3,5.9-2.3s4.4,0.8,6,2.4l-2.7,2.7c-0.9-1-2-1.5-3.2-1.5c-1.3,0-2.3,0.4-3.1,1.3c-0.8,0.8-1.2,1.9-1.2,3.2
			c0,1.3,0.4,2.4,1.2,3.2c0.8,0.8,1.8,1.3,3.1,1.3c1.3,0,2.4-0.5,3.2-1.5L323.1-66.1z"/>
		<rect x="268.4" y="-61.7" fill="#FFFFFF" width="52.6" height="0.5"/>
		<path fill="#FFFFFF" d="M283.5-58.9v1.2c-0.7-0.3-1.4-0.5-2.1-0.5c-0.7,0-1.2,0.2-1.5,0.5c-0.3,0.3-0.5,0.7-0.5,1.3
			c0,0.5,0.2,0.9,0.5,1.2c0.3,0.3,0.8,0.4,1.4,0.4c0.3,0,0.6-0.1,0.9-0.2v-0.6h-0.8v-1h2.2v2.2c-0.2,0.2-0.5,0.4-1,0.5
			s-0.9,0.2-1.3,0.2c-0.9,0-1.8-0.3-2.4-0.8c-0.6-0.5-0.9-1.2-0.9-2s0.3-1.5,0.9-2c0.6-0.5,1.4-0.8,2.4-0.8
			C282.1-59.4,282.9-59.2,283.5-58.9"/>
		<path fill="#FFFFFF" d="M285.6-59.3h2.5c0.5,0,1,0.2,1.3,0.4c0.3,0.3,0.5,0.7,0.5,1.1c0,0.6-0.3,1-0.9,1.3c0.3,0.1,0.5,0.4,0.8,1
			c0.3,0.5,0.5,1,0.7,1.5H289c-0.1-0.2-0.2-0.5-0.5-1c-0.2-0.5-0.4-0.8-0.5-1c-0.2-0.2-0.3-0.2-0.5-0.2H287v2.2h-1.4L285.6-59.3
			L285.6-59.3z M287-58.3v1.3h0.7c0.2,0,0.4-0.1,0.5-0.2s0.2-0.3,0.2-0.4c0-0.4-0.3-0.6-0.8-0.6L287-58.3L287-58.3z"/>
		<path fill="#FFFFFF" d="M294.7-59.4c0.9,0,1.7,0.3,2.3,0.8c0.6,0.5,0.9,1.2,0.9,2c0,0.8-0.3,1.4-0.9,2c-0.6,0.5-1.4,0.8-2.2,0.8
			c-0.9,0-1.7-0.3-2.3-0.8s-0.9-1.2-0.9-2c0-0.8,0.3-1.4,0.9-2C293-59.1,293.7-59.4,294.7-59.4 M294.7-54.9c0.5,0,0.9-0.2,1.3-0.4
			c0.3-0.3,0.5-0.7,0.5-1.2c0-0.5-0.2-0.9-0.5-1.2c-0.3-0.3-0.7-0.4-1.3-0.4c-0.5,0-0.9,0.2-1.3,0.4c-0.3,0.3-0.5,0.7-0.5,1.2
			c0,0.5,0.2,0.9,0.5,1.2C293.7-55,294.2-54.9,294.7-54.9"/>
		<path fill="#FFFFFF" d="M303.7-59.3h1.4v3.1c0,0.8-0.2,1.4-0.7,1.8c-0.5,0.4-1.2,0.6-2,0.6s-1.5-0.2-2-0.6c-0.5-0.4-0.7-1-0.7-1.8
			v-3.1h1.4v3.1c0,0.4,0.1,0.7,0.4,0.9c0.3,0.2,0.6,0.3,1,0.3c0.4,0,0.8-0.1,1-0.3c0.3-0.2,0.4-0.5,0.4-1L303.7-59.3L303.7-59.3z"/>
		<path fill="#FFFFFF" d="M307.2-59.3h2.5c0.5,0,1,0.2,1.3,0.5c0.3,0.3,0.5,0.7,0.5,1.2c0,0.4-0.2,0.8-0.5,1.2
			c-0.3,0.3-0.8,0.5-1.3,0.5h-1.1v2.2h-1.4V-59.3z M308.5-58.3v1.3h0.7c0.5,0,0.9-0.2,0.9-0.7c0-0.2-0.1-0.4-0.2-0.5
			s-0.4-0.1-0.8-0.1H308.5z"/>
	</g>
</g>
</svg>
